<svg width="38" height="38" viewBox="0 0 38 38" fill="none" xmlns="http://www.w3.org/2000/svg">
<path d="M34.3336 4.70547C34.0042 4.4263 33.6052 4.24161 33.1792 4.17104C32.7532 4.10047 32.316 4.14666 31.9141 4.30469L4.51252 15.0664C4.0319 15.2495 3.6248 15.5855 3.3539 16.0227C3.083 16.4599 2.96332 16.9741 3.0133 17.4859C3.05789 17.9976 3.26715 18.4811 3.60971 18.8638C3.95227 19.2465 4.40966 19.5078 4.9133 19.6086L11.875 20.9891V29.6875C11.8748 30.1581 12.0143 30.6181 12.276 31.0092C12.5376 31.4004 12.9095 31.705 13.3446 31.8844C13.6325 32.0002 13.9397 32.0607 14.25 32.0625C14.562 32.0636 14.871 32.0025 15.159 31.8827C15.447 31.7629 15.7082 31.5868 15.9274 31.3648L19.7867 27.5203L25.6203 32.6562C26.051 33.0361 26.6047 33.247 27.1789 33.25C27.4314 33.2552 27.6828 33.215 27.9211 33.1312C28.3128 33.0073 28.6654 32.7833 28.944 32.4813C29.2225 32.1793 29.4174 31.8098 29.5094 31.4094L35.0906 7.03594C35.1882 6.61536 35.1693 6.17615 35.0359 5.76553C34.9025 5.35492 34.6597 4.98842 34.3336 4.70547ZM12.7805 18.7477L5.3883 17.2781L26.1102 9.1289L12.7805 18.7477ZM14.25 29.6875V22.6516L17.9906 25.9469L14.25 29.6875ZM27.1938 30.875L14.9625 20.1133L32.5821 7.39219L27.1938 30.875Z" fill="#F8F8F8"/>
</svg>
